/* XPM */
static char *CPU_xpm[] = {
/* columns rows colors chars-per-pixel */
"52 49 7 1",
"  c #040404",
". c #343434",
"X c #646464",
"o c #649c9c",
"O c Gray61",
"+ c Gray99",
"@ c Gray100",
/* pixels */
"@@@@@@@.....@@@.....@@@.....@@@.....@@@.....@@@@@@@@",
"@@@@@@@.ooo.@@@.ooo.@@@.ooo.@@@.ooo.@@@.ooo.@@@@@@@@",
"@@@@@...XXX.....XXX.....XXX.....XXX.....XXX...@@@@@@",
"@@@@..@@++@@@.+++++@+.@@@++++.+@++@@@.+++++@@...O@@@",
"@@@  ...........................................OO@@",
"@@@   ..........................................XoO@",
"@@..  XXXXXXXXXXXXXXXXXXXXXXXXXXXXXXXXXXXXXXX....XOO",
"@@.@                                        X..@.XOO",
"...@                                        X..+...O",
".oX+                                        X..+Xo.X",
".oX+                                        X..+Xo.X",
".oX+                                        X..+Xo.X",
"...+                                        X..@...X",
"@@.+                                        X..+.XXX",
"@@..                                        X....XOO",
"@@.@                                        X..+.XOO",
"...+                                        X..+...O",
".oX+                                        X..@Xo.X",
".oX@                                        X..+Xo.X",
".oX@                                        X..+Xo.X",
"...@                                        X..+...X",
"@@.+                                        X..@.XXX",
"@@..                                        X....XOO",
"@@.+                                        X..@.XOO",
"...+                                        X..+...O",
".oX+                                        X..+Xo.X",
".oX+                                        X..+Xo.X",
".oX@                                        X..+Xo.X",
"...+                                        X..@...X",
"@@.@                                        X..@.XXX",
"@@..                                        X....XOO",
"@@.@                                        X..@.XOO",
"...@                                        X..@...O",
".oX+                                        X..@Xo.X",
".oX+                                        X..+Xo.X",
".oX+                                        X..+Xo.X",
"...+                                        X..+...X",
"@@.@                                        X..+.XXX",
"@@..                                         ....XOO",
"@@                                            ..XXOO",
"@@@                                            .XXOO",
"@@@  .@@@@+++.+@@@+++.+@+@+++.@@+@+++.@@@@+++. .XXOO",
"@@@@ ...XXX.....XXX.....XXX.....XXX.....XXX....XXXOO",
"@@@@@O .ooo.....ooo.....ooo.....ooo.....ooo...XXXOOO",
"@@@@@OO.....................................XXXXXOOO",
"@@@@@@OOXXXXXXXXXXXXXXXXXXXXXXXXXXXXXXXXXXXXXXXoOOOO",
"@@@@@@@OOXXXXXXXXXXXXXXXXXXXXXXXXXXXXXXXXXXXoXOOOOO@",
"@@@@@@@@OOOOOOOOOOOOOOOOOOOOOOOOOOOOOOOOOOOOOOOOOO@@",
"@@@@@@@@@OOOOOOOOOOOOOOOOOOOOOOOOOOOOOOOOOOOOOOO@@@@"
};
